<mxfile host="app.diagrams.net" agent="Mozilla/5.0 (Windows NT 10.0; Win64; x64) AppleWebKit/537.36 (KHTML, like Gecko) Chrome/131.0.0.0 Safari/537.36" version="25.0.1">
  <diagram name="Страница — 1" id="V6rJdf1PqsG2V1mrnfjP">
    <mxGraphModel dx="2069" dy="647" grid="1" gridSize="10" guides="1" tooltips="1" connect="1" arrows="1" fold="1" page="1" pageScale="1" pageWidth="827" pageHeight="1169" math="0" shadow="0">
      <root>
        <mxCell id="0" />
        <mxCell id="1" parent="0" />
        <mxCell id="6faelGGpGeSTUQcnITrF-1" value="" style="rounded=1;whiteSpace=wrap;html=1;" parent="1" vertex="1">
          <mxGeometry x="390" y="210" width="190" height="200" as="geometry" />
        </mxCell>
        <mxCell id="6faelGGpGeSTUQcnITrF-2" value="Веб браузер" style="text;html=1;align=center;verticalAlign=middle;whiteSpace=wrap;rounded=0;" parent="1" vertex="1">
          <mxGeometry x="455" y="220" width="60" height="30" as="geometry" />
        </mxCell>
        <mxCell id="6faelGGpGeSTUQcnITrF-4" value="HTML5, CSS, TYPESCRIPT, REACT" style="rounded=0;whiteSpace=wrap;html=1;" parent="1" vertex="1">
          <mxGeometry x="425" y="270" width="120" height="60" as="geometry" />
        </mxCell>
        <mxCell id="6faelGGpGeSTUQcnITrF-6" value="" style="rounded=1;whiteSpace=wrap;html=1;" parent="1" vertex="1">
          <mxGeometry x="680" y="210" width="410" height="200" as="geometry" />
        </mxCell>
        <mxCell id="6faelGGpGeSTUQcnITrF-7" value="" style="endArrow=classic;startArrow=classic;html=1;rounded=0;entryX=0;entryY=0.5;entryDx=0;entryDy=0;exitX=1;exitY=0.5;exitDx=0;exitDy=0;" parent="1" source="6faelGGpGeSTUQcnITrF-1" target="6faelGGpGeSTUQcnITrF-6" edge="1">
          <mxGeometry width="50" height="50" relative="1" as="geometry">
            <mxPoint x="600" y="360" as="sourcePoint" />
            <mxPoint x="650" y="310" as="targetPoint" />
          </mxGeometry>
        </mxCell>
        <mxCell id="6faelGGpGeSTUQcnITrF-8" value="HTTP&lt;div&gt;resp\req&lt;/div&gt;" style="text;html=1;align=center;verticalAlign=middle;whiteSpace=wrap;rounded=0;" parent="1" vertex="1">
          <mxGeometry x="600" y="250" width="60" height="30" as="geometry" />
        </mxCell>
        <mxCell id="6faelGGpGeSTUQcnITrF-11" value="Сервер" style="text;html=1;align=center;verticalAlign=middle;whiteSpace=wrap;rounded=0;" parent="1" vertex="1">
          <mxGeometry x="855" y="240" width="60" height="30" as="geometry" />
        </mxCell>
        <mxCell id="6faelGGpGeSTUQcnITrF-12" value="Java Spring Boot&lt;div&gt;&amp;nbsp;приложение&lt;/div&gt;" style="rounded=0;whiteSpace=wrap;html=1;" parent="1" vertex="1">
          <mxGeometry x="715" y="320" width="120" height="60" as="geometry" />
        </mxCell>
        <mxCell id="6faelGGpGeSTUQcnITrF-16" value="База данных PostgreSQL" style="rounded=0;whiteSpace=wrap;html=1;" parent="1" vertex="1">
          <mxGeometry x="920" y="320" width="120" height="60" as="geometry" />
        </mxCell>
        <mxCell id="6faelGGpGeSTUQcnITrF-17" value="" style="endArrow=classic;startArrow=classic;html=1;rounded=0;entryX=0;entryY=0.5;entryDx=0;entryDy=0;exitX=1;exitY=0.5;exitDx=0;exitDy=0;" parent="1" source="6faelGGpGeSTUQcnITrF-12" target="6faelGGpGeSTUQcnITrF-16" edge="1">
          <mxGeometry width="50" height="50" relative="1" as="geometry">
            <mxPoint x="880" y="450" as="sourcePoint" />
            <mxPoint x="930" y="400" as="targetPoint" />
          </mxGeometry>
        </mxCell>
        <mxCell id="cuGPar4a3bwMZqJY6J5C-8" value="&lt;div style=&quot;box-sizing:border-box;width:100%;background:#e4e4e4;padding:2px;&quot;&gt;Users&lt;/div&gt;&lt;table style=&quot;width:100%;font-size:1em;&quot; cellpadding=&quot;2&quot; cellspacing=&quot;0&quot;&gt;&lt;tbody&gt;&lt;tr&gt;&lt;td&gt;PK&lt;/td&gt;&lt;td&gt;user_id SERIAL PRIMARY KEY&lt;/td&gt;&lt;/tr&gt;&lt;tr&gt;&lt;td&gt;&lt;br&gt;&lt;/td&gt;&lt;td&gt;first_name VARCHAR(50) NOT NULL&lt;br&gt;last_name VARCHAR(50) NOT NULL&lt;br&gt;email &lt;span class=&quot;hljs-type&quot;&gt;VARCHAR&lt;/span&gt;(&lt;span class=&quot;hljs-number&quot;&gt;100&lt;/span&gt;) &lt;span class=&quot;hljs-keyword&quot;&gt;UNIQUE&lt;/span&gt; &lt;span class=&quot;hljs-keyword&quot;&gt;NOT&lt;/span&gt; &lt;span class=&quot;hljs-keyword&quot;&gt;NULL&lt;br&gt;password_hash TEXT &lt;span class=&quot;hljs-keyword&quot;&gt;NOT&lt;/span&gt; &lt;span class=&quot;hljs-keyword&quot;&gt;NULL&lt;br&gt;&lt;/span&gt;role &lt;span class=&quot;hljs-type&quot;&gt;VARCHAR&lt;/span&gt;(&lt;span class=&quot;hljs-number&quot;&gt;20&lt;/span&gt;) &lt;span class=&quot;hljs-keyword&quot;&gt;NOT&lt;/span&gt; &lt;span class=&quot;hljs-keyword&quot;&gt;NULL&lt;br&gt;created_at &lt;span class=&quot;hljs-type&quot;&gt;TIMESTAMP&lt;/span&gt; &lt;span class=&quot;hljs-keyword&quot;&gt;DEFAULT&lt;/span&gt; &lt;span class=&quot;hljs-built_in&quot;&gt;CURRENT_TIMESTAMP&lt;/span&gt;&lt;/span&gt;&lt;/span&gt;&lt;/td&gt;&lt;/tr&gt;&lt;tr&gt;&lt;td&gt;&lt;/td&gt;&lt;td&gt;&lt;br&gt;&lt;/td&gt;&lt;/tr&gt;&lt;/tbody&gt;&lt;/table&gt;" style="verticalAlign=top;align=left;overflow=fill;html=1;whiteSpace=wrap;" parent="1" vertex="1">
          <mxGeometry x="290" y="500" width="350" height="180" as="geometry" />
        </mxCell>
        <mxCell id="cuGPar4a3bwMZqJY6J5C-10" value="&lt;div style=&quot;box-sizing:border-box;width:100%;background:#e4e4e4;padding:2px;&quot;&gt;Organisations&lt;/div&gt;&lt;table style=&quot;width:100%;font-size:1em;&quot; cellpadding=&quot;2&quot; cellspacing=&quot;0&quot;&gt;&lt;tbody&gt;&lt;tr&gt;&lt;td&gt;PK&lt;/td&gt;&lt;td&gt;organisation_id SERIAL PRIMARY KEY&lt;/td&gt;&lt;/tr&gt;&lt;tr&gt;&lt;td&gt;&lt;br&gt;&lt;/td&gt;&lt;td&gt;name &lt;span class=&quot;hljs-type&quot;&gt;VARCHAR&lt;/span&gt;(&lt;span class=&quot;hljs-number&quot;&gt;100&lt;/span&gt;) &lt;span class=&quot;hljs-keyword&quot;&gt;NOT&lt;/span&gt; &lt;span class=&quot;hljs-keyword&quot;&gt;NULL&lt;/span&gt;,&lt;br&gt;    owner_id &lt;span class=&quot;hljs-type&quot;&gt;INT&lt;/span&gt; &lt;span class=&quot;hljs-keyword&quot;&gt;REFERENCES&lt;/span&gt; users(user_id)&lt;br&gt;    created_at &lt;span class=&quot;hljs-type&quot;&gt;TIMESTAMP&lt;/span&gt; &lt;span class=&quot;hljs-keyword&quot;&gt;DEFAULT&lt;/span&gt; &lt;span class=&quot;hljs-built_in&quot;&gt;CURRENT_TIMESTAMP&lt;/span&gt;&lt;br&gt;&lt;br&gt;&lt;/td&gt;&lt;/tr&gt;&lt;tr&gt;&lt;td&gt;&lt;/td&gt;&lt;td&gt;&lt;br&gt;&lt;/td&gt;&lt;/tr&gt;&lt;/tbody&gt;&lt;/table&gt;" style="verticalAlign=top;align=left;overflow=fill;html=1;whiteSpace=wrap;" parent="1" vertex="1">
          <mxGeometry x="-320" y="900" width="350" height="90" as="geometry" />
        </mxCell>
        <mxCell id="cuGPar4a3bwMZqJY6J5C-11" value="&lt;div style=&quot;box-sizing:border-box;width:100%;background:#e4e4e4;padding:2px;&quot;&gt;Organisation_members&lt;/div&gt;&lt;table style=&quot;width:100%;font-size:1em;&quot; cellpadding=&quot;2&quot; cellspacing=&quot;0&quot;&gt;&lt;tbody&gt;&lt;tr&gt;&lt;td&gt;PK&lt;/td&gt;&lt;td&gt;member_id SERIAL PRIMARY KEY&lt;/td&gt;&lt;/tr&gt;&lt;tr&gt;&lt;td&gt;&lt;br&gt;&lt;/td&gt;&lt;td&gt;user_id &lt;span class=&quot;hljs-type&quot;&gt;INT&lt;/span&gt; &lt;span class=&quot;hljs-keyword&quot;&gt;REFERENCES&lt;/span&gt; users(user_id) &lt;br&gt;organization_id&amp;nbsp;&lt;span class=&quot;hljs-type&quot;&gt;INT&amp;nbsp;&lt;/span&gt;&lt;span class=&quot;hljs-keyword&quot;&gt;REFERENCES&amp;nbsp;&lt;/span&gt;organizations(organization_id)&lt;br&gt;role_in_org &lt;span class=&quot;hljs-type&quot;&gt;VARCHAR&lt;/span&gt;(&lt;span class=&quot;hljs-number&quot;&gt;20&lt;/span&gt;) &lt;span class=&quot;hljs-keyword&quot;&gt;NOT&lt;/span&gt; &lt;span class=&quot;hljs-keyword&quot;&gt;NULL&lt;br&gt;&lt;/span&gt;joined_at &lt;span class=&quot;hljs-type&quot;&gt;TIMESTAMP&lt;/span&gt; &lt;span class=&quot;hljs-keyword&quot;&gt;DEFAULT&lt;/span&gt; &lt;span class=&quot;hljs-built_in&quot;&gt;CURRENT_TIMESTAMP&lt;/span&gt;&lt;/td&gt;&lt;/tr&gt;&lt;tr&gt;&lt;td&gt;&lt;/td&gt;&lt;td&gt;&lt;br&gt;&lt;/td&gt;&lt;/tr&gt;&lt;/tbody&gt;&lt;/table&gt;" style="verticalAlign=top;align=left;overflow=fill;html=1;whiteSpace=wrap;" parent="1" vertex="1">
          <mxGeometry x="-295" y="710" width="380" height="100" as="geometry" />
        </mxCell>
        <mxCell id="cuGPar4a3bwMZqJY6J5C-12" value="&lt;div style=&quot;box-sizing:border-box;width:100%;background:#e4e4e4;padding:2px;&quot;&gt;Course&lt;/div&gt;&lt;table style=&quot;width:100%;font-size:1em;&quot; cellpadding=&quot;2&quot; cellspacing=&quot;0&quot;&gt;&lt;tbody&gt;&lt;tr&gt;&lt;td&gt;PK&lt;/td&gt;&lt;td&gt;course_id SERIVAL PRIMARY KEY&lt;/td&gt;&lt;/tr&gt;&lt;tr&gt;&lt;td&gt;&lt;br&gt;&lt;/td&gt;&lt;td&gt;organization_id &lt;span class=&quot;hljs-type&quot;&gt;INT&lt;/span&gt; &lt;span class=&quot;hljs-keyword&quot;&gt;REFERENCES&amp;nbsp;&lt;/span&gt;organizations(organization_id)&lt;br&gt;name &lt;span class=&quot;hljs-type&quot;&gt;VARCHAR&lt;/span&gt;(&lt;span class=&quot;hljs-number&quot;&gt;100&lt;/span&gt;) &lt;span class=&quot;hljs-keyword&quot;&gt;NOT&lt;/span&gt; &lt;span class=&quot;hljs-keyword&quot;&gt;NULL&lt;/span&gt;&lt;br&gt;    teacher_id &lt;span class=&quot;hljs-type&quot;&gt;INT&lt;/span&gt; &lt;span class=&quot;hljs-keyword&quot;&gt;REFERENCES&lt;/span&gt; users(user_id)&lt;br&gt;    created_at &lt;span class=&quot;hljs-type&quot;&gt;TIMESTAMP&lt;/span&gt; &lt;span class=&quot;hljs-keyword&quot;&gt;DEFAULT&lt;/span&gt; &lt;span class=&quot;hljs-built_in&quot;&gt;CURRENT_TIMESTAMP&lt;/span&gt;&lt;/td&gt;&lt;/tr&gt;&lt;tr&gt;&lt;td&gt;&lt;/td&gt;&lt;td&gt;&lt;br&gt;&lt;/td&gt;&lt;/tr&gt;&lt;/tbody&gt;&lt;/table&gt;" style="verticalAlign=top;align=left;overflow=fill;html=1;whiteSpace=wrap;" parent="1" vertex="1">
          <mxGeometry x="827" y="920" width="380" height="120" as="geometry" />
        </mxCell>
        <mxCell id="cuGPar4a3bwMZqJY6J5C-13" value="&lt;div style=&quot;box-sizing:border-box;width:100%;background:#e4e4e4;padding:2px;&quot;&gt;Course_students&lt;/div&gt;&lt;table style=&quot;width:100%;font-size:1em;&quot; cellpadding=&quot;2&quot; cellspacing=&quot;0&quot;&gt;&lt;tbody&gt;&lt;tr&gt;&lt;td&gt;PK&lt;/td&gt;&lt;td&gt;course_student_id SERIAL PRIMARY KEY&lt;/td&gt;&lt;/tr&gt;&lt;tr&gt;&lt;td&gt;&lt;br&gt;&lt;/td&gt;&lt;td&gt;sourse_id &lt;span class=&quot;hljs-type&quot;&gt;INT&lt;/span&gt; &lt;span class=&quot;hljs-keyword&quot;&gt;REFERENCES&lt;/span&gt; course(course_id)&lt;br&gt;student_id &lt;span class=&quot;hljs-type&quot;&gt;INT&lt;/span&gt; &lt;span class=&quot;hljs-keyword&quot;&gt;REFERENCES&lt;/span&gt; users(user_id)&lt;br&gt;joined_at &lt;span class=&quot;hljs-type&quot;&gt;TIMESTAMP&lt;/span&gt; &lt;span class=&quot;hljs-keyword&quot;&gt;DEFAULT&lt;/span&gt; &lt;span class=&quot;hljs-built_in&quot;&gt;CURRENT_TIMESTAMP&lt;/span&gt;&lt;/td&gt;&lt;/tr&gt;&lt;tr&gt;&lt;td&gt;&lt;/td&gt;&lt;td&gt;&lt;br&gt;&lt;/td&gt;&lt;/tr&gt;&lt;/tbody&gt;&lt;/table&gt;" style="verticalAlign=top;align=left;overflow=fill;html=1;whiteSpace=wrap;" parent="1" vertex="1">
          <mxGeometry x="835" y="500" width="340" height="90" as="geometry" />
        </mxCell>
        <mxCell id="cuGPar4a3bwMZqJY6J5C-14" value="&lt;div style=&quot;box-sizing:border-box;width:100%;background:#e4e4e4;padding:2px;&quot;&gt;Grades&lt;/div&gt;&lt;table style=&quot;width:100%;font-size:1em;&quot; cellpadding=&quot;2&quot; cellspacing=&quot;0&quot;&gt;&lt;tbody&gt;&lt;tr&gt;&lt;td&gt;PK&lt;/td&gt;&lt;td&gt;grade_id SERIAL PRIMARY KEY&lt;/td&gt;&lt;/tr&gt;&lt;tr&gt;&lt;td&gt;&lt;br&gt;&lt;/td&gt;&lt;td&gt;course_id &lt;span class=&quot;hljs-type&quot;&gt;INT&lt;/span&gt; &lt;span class=&quot;hljs-keyword&quot;&gt;REFERENCES&lt;/span&gt;&amp;nbsp;course(course_id)&lt;br&gt;    student_id &lt;span class=&quot;hljs-type&quot;&gt;INT&lt;/span&gt; &lt;span class=&quot;hljs-keyword&quot;&gt;REFERENCES&lt;/span&gt; users(user_id)&lt;br&gt;    grade INT&amp;nbsp;&lt;span class=&quot;hljs-keyword&quot;&gt;NOT&lt;/span&gt; &lt;span class=&quot;hljs-keyword&quot;&gt;NULL&lt;/span&gt;&lt;br&gt;    grade_date &lt;span class=&quot;hljs-type&quot;&gt;TIMESTAMP&lt;/span&gt; &lt;span class=&quot;hljs-keyword&quot;&gt;DEFAULT&lt;/span&gt; &lt;span class=&quot;hljs-built_in&quot;&gt;CURRENT_TIMESTAMP&lt;br&gt;&lt;/span&gt;comment TEXT&lt;/td&gt;&lt;/tr&gt;&lt;tr&gt;&lt;td&gt;&lt;/td&gt;&lt;td&gt;&lt;br&gt;&lt;/td&gt;&lt;/tr&gt;&lt;/tbody&gt;&lt;/table&gt;" style="verticalAlign=top;align=left;overflow=fill;html=1;whiteSpace=wrap;" parent="1" vertex="1">
          <mxGeometry x="245" y="920" width="470" height="120" as="geometry" />
        </mxCell>
        <mxCell id="cuGPar4a3bwMZqJY6J5C-15" value="&lt;div style=&quot;box-sizing:border-box;width:100%;background:#e4e4e4;padding:2px;&quot;&gt;Requests&lt;/div&gt;&lt;table style=&quot;width:100%;font-size:1em;&quot; cellpadding=&quot;2&quot; cellspacing=&quot;0&quot;&gt;&lt;tbody&gt;&lt;tr&gt;&lt;td&gt;PK&lt;/td&gt;&lt;td&gt;request_id SERIAL PRIMARY KEY&lt;/td&gt;&lt;/tr&gt;&lt;tr&gt;&lt;td&gt;&lt;br&gt;&lt;/td&gt;&lt;td&gt;user_id &lt;span class=&quot;hljs-type&quot;&gt;INT&lt;/span&gt; &lt;span class=&quot;hljs-keyword&quot;&gt;REFERENCES&lt;/span&gt; users(user_id)&lt;br&gt;    organization_id &lt;span class=&quot;hljs-type&quot;&gt;INT&lt;/span&gt; &lt;span class=&quot;hljs-keyword&quot;&gt;REFERENCES&lt;/span&gt; organizations(organization_id)&lt;br&gt;    status &lt;span class=&quot;hljs-type&quot;&gt;VARCHAR&lt;/span&gt;(&lt;span class=&quot;hljs-number&quot;&gt;20&lt;/span&gt;) &lt;span class=&quot;hljs-keyword&quot;&gt;NOT&lt;/span&gt; &lt;span class=&quot;hljs-keyword&quot;&gt;NULL&lt;/span&gt;&lt;br&gt;    created_at &lt;span class=&quot;hljs-type&quot;&gt;TIMESTAMP&lt;/span&gt; &lt;span class=&quot;hljs-keyword&quot;&gt;DEFAULT&lt;/span&gt; &lt;span class=&quot;hljs-built_in&quot;&gt;CURRENT_TIMESTAMP&lt;/span&gt;&lt;br&gt;    processed_at &lt;span class=&quot;hljs-type&quot;&gt;TIMESTAMP&lt;/span&gt;&lt;/td&gt;&lt;/tr&gt;&lt;tr&gt;&lt;td&gt;&lt;/td&gt;&lt;td&gt;&lt;br&gt;&lt;/td&gt;&lt;/tr&gt;&lt;/tbody&gt;&lt;/table&gt;" style="verticalAlign=top;align=left;overflow=fill;html=1;whiteSpace=wrap;" parent="1" vertex="1">
          <mxGeometry x="-320" y="500" width="430" height="130" as="geometry" />
        </mxCell>
        <mxCell id="cuGPar4a3bwMZqJY6J5C-20" value="" style="fontSize=12;html=1;endArrow=ERzeroToMany;endFill=1;rounded=0;exitX=-0.007;exitY=0.183;exitDx=0;exitDy=0;entryX=1;entryY=0.25;entryDx=0;entryDy=0;exitPerimeter=0;" parent="1" source="cuGPar4a3bwMZqJY6J5C-8" target="cuGPar4a3bwMZqJY6J5C-15" edge="1">
          <mxGeometry width="100" height="100" relative="1" as="geometry">
            <mxPoint x="310" y="900" as="sourcePoint" />
            <mxPoint x="-360" y="700" as="targetPoint" />
          </mxGeometry>
        </mxCell>
        <mxCell id="cuGPar4a3bwMZqJY6J5C-24" value="" style="edgeStyle=orthogonalEdgeStyle;fontSize=12;html=1;endArrow=ERzeroToMany;endFill=1;rounded=0;exitX=0;exitY=0.75;exitDx=0;exitDy=0;entryX=0;entryY=0.25;entryDx=0;entryDy=0;" parent="1" source="cuGPar4a3bwMZqJY6J5C-10" target="cuGPar4a3bwMZqJY6J5C-15" edge="1">
          <mxGeometry width="100" height="100" relative="1" as="geometry">
            <mxPoint x="-390" y="915.03" as="sourcePoint" />
            <mxPoint x="-390" y="550" as="targetPoint" />
            <Array as="points">
              <mxPoint x="-390" y="967" />
              <mxPoint x="-390" y="533" />
            </Array>
          </mxGeometry>
        </mxCell>
        <mxCell id="cuGPar4a3bwMZqJY6J5C-25" value="" style="edgeStyle=elbowEdgeStyle;fontSize=12;html=1;endArrow=ERzeroToMany;endFill=1;rounded=0;entryX=1;entryY=0.5;entryDx=0;entryDy=0;exitX=0;exitY=0.75;exitDx=0;exitDy=0;" parent="1" source="cuGPar4a3bwMZqJY6J5C-8" target="cuGPar4a3bwMZqJY6J5C-10" edge="1">
          <mxGeometry width="100" height="100" relative="1" as="geometry">
            <mxPoint x="270" y="810" as="sourcePoint" />
            <mxPoint x="370" y="710" as="targetPoint" />
            <Array as="points">
              <mxPoint x="190" y="760" />
            </Array>
          </mxGeometry>
        </mxCell>
        <mxCell id="cuGPar4a3bwMZqJY6J5C-29" value="" style="edgeStyle=orthogonalEdgeStyle;fontSize=12;html=1;endArrow=ERmandOne;startArrow=ERmandOne;rounded=0;entryX=1;entryY=0.75;entryDx=0;entryDy=0;exitX=0;exitY=0.5;exitDx=0;exitDy=0;" parent="1" source="cuGPar4a3bwMZqJY6J5C-12" target="cuGPar4a3bwMZqJY6J5C-8" edge="1">
          <mxGeometry width="100" height="100" relative="1" as="geometry">
            <mxPoint x="810" y="980" as="sourcePoint" />
            <mxPoint x="590" y="730" as="targetPoint" />
            <Array as="points">
              <mxPoint x="760" y="980" />
              <mxPoint x="760" y="635" />
            </Array>
          </mxGeometry>
        </mxCell>
        <mxCell id="cuGPar4a3bwMZqJY6J5C-32" value="&lt;div&gt;&lt;br&gt;&lt;/div&gt;&lt;div&gt;&lt;br&gt;&lt;/div&gt;" style="edgeLabel;html=1;align=center;verticalAlign=middle;resizable=0;points=[];" parent="cuGPar4a3bwMZqJY6J5C-29" vertex="1" connectable="0">
          <mxGeometry x="-0.9985" y="-4" relative="1" as="geometry">
            <mxPoint as="offset" />
          </mxGeometry>
        </mxCell>
        <mxCell id="cuGPar4a3bwMZqJY6J5C-30" style="edgeStyle=orthogonalEdgeStyle;rounded=0;orthogonalLoop=1;jettySize=auto;html=1;exitX=0.5;exitY=1;exitDx=0;exitDy=0;" parent="1" source="cuGPar4a3bwMZqJY6J5C-14" target="cuGPar4a3bwMZqJY6J5C-14" edge="1">
          <mxGeometry relative="1" as="geometry" />
        </mxCell>
        <mxCell id="cuGPar4a3bwMZqJY6J5C-31" value="" style="edgeStyle=orthogonalEdgeStyle;fontSize=12;html=1;endArrow=ERzeroToMany;endFill=1;rounded=0;exitX=0;exitY=0.25;exitDx=0;exitDy=0;entryX=0;entryY=0.75;entryDx=0;entryDy=0;" parent="1" source="cuGPar4a3bwMZqJY6J5C-12" target="cuGPar4a3bwMZqJY6J5C-13" edge="1">
          <mxGeometry width="100" height="100" relative="1" as="geometry">
            <mxPoint x="680" y="810" as="sourcePoint" />
            <mxPoint x="710" y="520" as="targetPoint" />
            <Array as="points">
              <mxPoint x="780" y="950" />
              <mxPoint x="780" y="568" />
              <mxPoint x="835" y="568" />
            </Array>
          </mxGeometry>
        </mxCell>
        <mxCell id="cuGPar4a3bwMZqJY6J5C-38" value="" style="edgeStyle=orthogonalEdgeStyle;fontSize=12;html=1;endArrow=ERoneToMany;rounded=0;entryX=0;entryY=0.5;entryDx=0;entryDy=0;exitX=1;exitY=0.25;exitDx=0;exitDy=0;" parent="1" source="cuGPar4a3bwMZqJY6J5C-11" target="cuGPar4a3bwMZqJY6J5C-8" edge="1">
          <mxGeometry width="100" height="100" relative="1" as="geometry">
            <mxPoint x="230" y="860" as="sourcePoint" />
            <mxPoint x="330" y="760" as="targetPoint" />
            <Array as="points">
              <mxPoint x="140" y="735" />
              <mxPoint x="140" y="590" />
            </Array>
          </mxGeometry>
        </mxCell>
        <mxCell id="cuGPar4a3bwMZqJY6J5C-39" value="" style="edgeStyle=orthogonalEdgeStyle;fontSize=12;html=1;endArrow=ERoneToMany;rounded=0;exitX=0;exitY=0.5;exitDx=0;exitDy=0;entryX=0;entryY=0.5;entryDx=0;entryDy=0;" parent="1" source="cuGPar4a3bwMZqJY6J5C-11" target="cuGPar4a3bwMZqJY6J5C-10" edge="1">
          <mxGeometry width="100" height="100" relative="1" as="geometry">
            <mxPoint x="230" y="860" as="sourcePoint" />
            <mxPoint x="330" y="760" as="targetPoint" />
            <Array as="points">
              <mxPoint x="-350" y="760" />
              <mxPoint x="-350" y="945" />
            </Array>
          </mxGeometry>
        </mxCell>
        <mxCell id="Nr0X3NniLX37dWHPx-pN-1" value="" style="edgeStyle=elbowEdgeStyle;fontSize=12;html=1;endArrow=ERzeroToMany;endFill=1;rounded=0;exitX=-0.003;exitY=0.878;exitDx=0;exitDy=0;exitPerimeter=0;entryX=0;entryY=0.25;entryDx=0;entryDy=0;" edge="1" parent="1" source="cuGPar4a3bwMZqJY6J5C-8" target="cuGPar4a3bwMZqJY6J5C-14">
          <mxGeometry width="100" height="100" relative="1" as="geometry">
            <mxPoint x="450" y="810" as="sourcePoint" />
            <mxPoint x="550" y="710" as="targetPoint" />
            <Array as="points">
              <mxPoint x="220" y="820" />
            </Array>
          </mxGeometry>
        </mxCell>
        <mxCell id="Nr0X3NniLX37dWHPx-pN-2" value="" style="edgeStyle=entityRelationEdgeStyle;fontSize=12;html=1;endArrow=ERzeroToMany;endFill=1;rounded=0;exitX=0;exitY=0.75;exitDx=0;exitDy=0;entryX=1;entryY=0.75;entryDx=0;entryDy=0;" edge="1" parent="1" source="cuGPar4a3bwMZqJY6J5C-12" target="cuGPar4a3bwMZqJY6J5C-14">
          <mxGeometry width="100" height="100" relative="1" as="geometry">
            <mxPoint x="730" y="930" as="sourcePoint" />
            <mxPoint x="830" y="830" as="targetPoint" />
          </mxGeometry>
        </mxCell>
        <mxCell id="Nr0X3NniLX37dWHPx-pN-3" value="" style="edgeStyle=entityRelationEdgeStyle;fontSize=12;html=1;endArrow=ERoneToMany;rounded=0;entryX=0;entryY=0.5;entryDx=0;entryDy=0;exitX=1;exitY=0.25;exitDx=0;exitDy=0;" edge="1" parent="1" source="cuGPar4a3bwMZqJY6J5C-8" target="cuGPar4a3bwMZqJY6J5C-13">
          <mxGeometry width="100" height="100" relative="1" as="geometry">
            <mxPoint x="620" y="840" as="sourcePoint" />
            <mxPoint x="720" y="740" as="targetPoint" />
          </mxGeometry>
        </mxCell>
      </root>
    </mxGraphModel>
  </diagram>
</mxfile>
